<svg id="Logo" xmlns="http://www.w3.org/2000/svg" viewBox="0 0 500 205"><path d="M0 1.07h36.47v202.86H0zm274.99 0h36.46v202.86h-36.46zM64.43 64.87h36.47v139.06H64.43zm182.83 61.03c0-40.6-23.82-61.02-59.32-61.02s-59.32 20.66-59.32 61.02v78.03h36.47V125.9c0-18.96 9.24-26.99 22.85-26.99s22.85 8.03 22.85 26.99v78.03h36.47V125.9zM59.33 24.41c0-13.37 9.97-23.34 23.34-23.34s23.34 9.97 23.34 23.34-9.97 23.34-23.34 23.34-23.34-9.97-23.34-23.34m346.11 40.46h-39.78l-49.59 69.53 49.59 69.53h39.86l-49.6-69.53 49.6-69.53h-.08z" fill="#003250"/><path fill="#6fffe6" d="M450.33 64.87h-39.78l49.6 69.53-49.6 69.53h39.85L500 134.4l-49.6-69.53h-.07z"/></svg>